<?xml version="1.0" encoding="UTF-8"?><svg id="Layer_1" xmlns="http://www.w3.org/2000/svg" viewBox="0 0 840.56 214.71"><defs><style>.cls-1{fill:#fff;}</style></defs><path class="cls-1" d="M4.86,116.72c-3.24-3.87-4.86-8.13-4.86-12.77V35.18c0-3.42,.91-6.51,2.73-9.26,1.82-2.75,4.24-4.73,7.26-5.94,1.93-.81,3.87-1.22,5.81-1.22,4.82,0,9.39,2.52,13.71,7.57l35.13,41.68V35.18c0-4.46,1.6-8.28,4.8-11.48,3.15-3.11,6.89-4.66,11.21-4.66,2.16,0,4.22,.4,6.18,1.18,1.96,.79,3.64,1.95,5.03,3.48,1.44,1.4,2.59,3.12,3.45,5.17,.85,2.05,1.28,4.15,1.28,6.32V105.64c0,.68-.09,1.73-.27,3.18-.45,2.48-1.45,4.69-3.01,6.65-1.55,1.96-3.43,3.48-5.64,4.56-2.21,1.08-4.59,1.62-7.16,1.62-3.06,0-5.83-.77-8.31-2.3-1.8-1.22-3.13-2.39-3.99-3.51L31.95,71.32v34.18c0,4.64-1.55,8.51-4.66,11.62-3.02,3.02-6.67,4.53-10.95,4.53-4.64,0-8.47-1.64-11.48-4.93"/><path class="cls-1" d="M108.08,120.7c-3.11-1.35-5.51-3.23-7.19-5.64-1.69-2.41-2.53-5.19-2.53-8.34,0-2.34,.61-5.2,1.82-8.58l23.78-61.41c2.21-5.63,5.41-9.96,9.63-13,4.21-3.04,9.02-4.56,14.42-4.56s10.28,1.52,14.49,4.56c4.21,3.04,7.42,7.38,9.63,13l23.78,61.41c1.22,3.56,1.82,6.42,1.82,8.58,0,3.15-.84,5.93-2.53,8.34-1.69,2.41-4.09,4.29-7.19,5.64-2.16,.95-4.37,1.42-6.62,1.42-3.2,0-6.16-1.01-8.88-3.04-2.73-2.03-4.74-4.84-6.05-8.44l-1.55-4.59h-33.57l-1.69,4.59c-1.22,3.51-3.19,6.3-5.91,8.38-2.73,2.07-5.73,3.11-9.02,3.11-2.25,0-4.46-.47-6.62-1.42m32.49-42.49h14.93l-7.5-26.82-7.43,26.82Z"/><path class="cls-1" d="M185.57,33.69c.09-2.57,.74-4.9,1.96-6.99,1.22-2.09,2.86-3.74,4.93-4.93,2.07-1.19,4.32-1.79,6.76-1.79h54.11c2.57,0,4.88,.64,6.96,1.92,2.07,1.28,3.72,3.02,4.93,5.2,1.21,2.19,1.82,4.56,1.82,7.13-.14,3.83-1.55,7.07-4.26,9.73-2.7,2.66-5.86,3.99-9.46,3.99h-11.62v57.96c0,2.93-.71,5.57-2.13,7.94-1.42,2.36-3.31,4.26-5.67,5.67-2.36,1.42-5.01,2.13-7.94,2.13s-5.66-.71-8.07-2.13c-2.41-1.42-4.32-3.37-5.74-5.84-1.42-2.48-2.13-5.16-2.13-8.04V47.68h-10.94c-3.74,0-6.92-1.37-9.56-4.12-2.63-2.75-3.95-6.03-3.95-9.86"/><path class="cls-1" d="M392.28,121.78c-4.37-.09-8.12-1.72-11.25-4.9-3.13-3.17-4.69-6.97-4.69-11.38V36.87c0-3.51,.66-6.54,1.99-9.09,1.33-2.54,3.18-4.48,5.57-5.81,2.39-1.33,5.27-1.99,8.65-1.99h30.33c6.35,0,11.96,.98,16.82,2.94,4.86,1.96,8.85,4.8,11.96,8.51,3.11,3.72,5.27,8.21,6.48,13.48,.72,3.24,1.08,6.15,1.08,8.71,0,9.24-3.13,16.6-9.39,22.09l-.54,.61-3.18,2.5-1.96,1.49,11.75,15.6c2.3,3.02,3.45,6.39,3.45,10.13,0,2.48-.57,4.85-1.72,7.13-1.15,2.28-2.83,4.22-5.04,5.84-2.88,2.07-5.92,3.11-9.12,3.11-5.76,0-10.65-3.06-14.66-9.19l-20.67-30.67v23.64c0,2.97-.71,5.65-2.13,8.04-1.42,2.39-3.32,4.29-5.71,5.71-2.39,1.42-5.07,2.13-8.04,2.13m16.01-61.81h13.31c1.58,0,2.92-.62,4.02-1.86,1.1-1.24,1.65-2.83,1.65-4.76-.05-1.53-.59-2.81-1.62-3.85-1.04-1.03-2.21-1.55-3.51-1.55h-13.85v12.02Z"/><path class="cls-1" d="M482.33,120.57c-4.77,0-8.76-1.63-11.96-4.9-3.2-3.27-4.8-7.44-4.8-12.53V35.05c0-2.12,.42-4.19,1.25-6.21,.83-2.03,1.99-3.78,3.48-5.27,3.11-3.11,6.89-4.66,11.35-4.66,2.16,0,4.22,.39,6.18,1.18,1.96,.79,3.64,1.95,5.03,3.48,3.24,3.24,4.86,7.12,4.86,11.62v57.56h23.37c2.52,0,4.81,.62,6.86,1.86,2.05,1.24,3.67,2.96,4.86,5.17,1.19,2.21,1.79,4.57,1.79,7.09-.05,3.83-1.39,7.07-4.02,9.73-2.64,2.66-5.8,3.98-9.49,3.98h-38.78Z"/><path class="cls-1" d="M541.16,117.12c-3.15-3.15-4.73-7.02-4.73-11.62V35.05c0-4.5,1.57-8.3,4.7-11.38,3.13-3.08,6.92-4.63,11.38-4.63,2.84,0,5.48,.71,7.94,2.13,2.45,1.42,4.39,3.37,5.81,5.84,1.42,2.48,2.13,5.2,2.13,8.17V105.77c0,2.12-.4,4.18-1.18,6.18-.79,2-1.95,3.77-3.48,5.3-3.15,3.02-6.89,4.53-11.21,4.53-4.59,0-8.38-1.55-11.35-4.66"/><path class="cls-1" d="M586.56,101.45c-3.65-4.86-6.45-10.06-8.41-15.6-1.96-5.54-2.94-10.94-2.94-16.21s1-10.66,3.01-16.04c2-5.38,4.92-10.46,8.75-15.23,8.51-10.45,19.77-16.66,33.78-18.65,3.83-.54,7.48-.81,10.94-.81,5.04,0,9.55,.55,13.51,1.66,3.96,1.1,7.24,2.57,9.83,4.39,2.59,1.82,4.53,3.84,5.81,6.05,1.29,2.21,1.93,4.53,1.93,6.96,0,3.29-.92,6.06-2.77,8.31-1.44,1.89-2.9,3.22-4.36,3.99-1.46,.77-3.37,1.15-5.71,1.15-1.94,0-3.51-.09-4.73-.27-2.34-.4-5.56-1.37-9.66-2.9-1.89-.54-4.35-.81-7.36-.81-5.31,0-9.88,1.54-13.68,4.63-3.81,3.09-6.34,7.53-7.6,13.34-.27,1.35-.4,2.81-.4,4.39,0,1.49,.13,3.02,.4,4.59,.72,3.83,1.94,7.07,3.65,9.73,1.71,2.66,3.92,4.65,6.62,5.98,2.7,1.33,5.83,1.99,9.39,1.99,4.46,0,9.75-1.06,15.88-3.17,.09-.04,.29-.11,.61-.2,.31-.09,.59-.16,.81-.2,1.58-.36,3.29-.54,5.13-.54,4.41,0,7.9,1.42,10.47,4.26,2.3,2.7,3.45,5.61,3.45,8.71,0,2.84-.97,5.7-2.9,8.58-2.43,3.74-6.89,6.82-13.38,9.26-4.64,1.85-10.22,2.77-16.75,2.77-3.29,0-6.76-.27-10.4-.81-9.59-1.49-17.92-5.22-24.99-11.21-2.7-2.2-5.34-4.89-7.9-8.04"/><path class="cls-1" d="M673.84,117.26c-3.15-3.15-4.73-6.98-4.73-11.48V35.05c0-4.5,1.57-8.32,4.69-11.45,3.13-3.13,6.93-4.69,11.38-4.69s8.15,1.6,11.35,4.79c1.03,1.04,1.89,2.15,2.57,3.34,.67,1.19,1.2,2.51,1.59,3.95,.38,1.44,.57,2.84,.57,4.19v20.2h31.34v-20.2c0-2.11,.42-4.19,1.25-6.21,.83-2.03,1.99-3.78,3.48-5.27,3.2-3.2,6.98-4.79,11.35-4.79,2.07,0,4.12,.39,6.15,1.18,2.03,.79,3.76,1.95,5.2,3.48,1.03,1.04,1.89,2.15,2.57,3.34,.67,1.19,1.2,2.51,1.59,3.95,.38,1.44,.57,2.84,.57,4.19V105.77c0,2.12-.42,4.19-1.25,6.21-.84,2.03-1.99,3.78-3.48,5.27-3.11,3.11-6.85,4.66-11.22,4.66-2.12,0-4.1-.37-5.94-1.11-1.85-.74-3.65-1.93-5.4-3.55-3.15-3.02-4.73-6.84-4.73-11.48v-22.43h-31.68v22.43c0,4.68-1.55,8.51-4.66,11.48-1.53,1.58-3.28,2.75-5.24,3.51-1.96,.77-3.95,1.15-5.98,1.15-4.46,0-8.24-1.55-11.35-4.66"/><path class="cls-1" d="M774.02,110.16c-.86-1.98-1.28-4.01-1.28-6.08V36.19c0-3.02,.7-5.77,2.09-8.24,1.4-2.48,3.31-4.42,5.74-5.84,2.43-1.42,5.18-2.13,8.24-2.13h38.03c2.3,0,4.49,.62,6.59,1.86,2.09,1.24,3.76,2.92,5,5.03,1.24,2.12,1.86,4.48,1.86,7.09s-.62,4.93-1.86,7.09c-1.24,2.16-2.9,3.87-5,5.13-2.1,1.26-4.38,1.89-6.86,1.89h-21.89v8.44h18.04c1.94,0,3.85,.39,5.74,1.18,1.89,.79,3.51,1.86,4.86,3.21,1.35,1.17,2.39,2.58,3.11,4.22,.72,1.64,1.08,3.34,1.08,5.1,0,3.69-1.44,6.91-4.32,9.66-3.11,2.66-6.55,3.99-10.34,3.99h-18.17v8.71h20.81c4.14,0,7.72,1.44,10.74,4.32,1.44,1.22,2.52,2.69,3.24,4.43,.72,1.73,1.08,3.52,1.08,5.37,0,3.83-1.4,7.07-4.19,9.73-3.11,2.75-6.6,4.12-10.47,4.12h-37.22c-2.97,0-5.8-.93-8.48-2.8-2.68-1.87-4.74-4.4-6.18-7.6"/><path class="cls-1" d="M297.07,14.23c0,7.86-6.37,14.23-14.23,14.23s-14.23-6.37-14.23-14.23,6.37-14.23,14.23-14.23,14.23,6.37,14.23,14.23"/><path class="cls-1" d="M369.8,14.23c0,7.86-6.37,14.23-14.23,14.23s-14.23-6.37-14.23-14.23,6.37-14.23,14.23-14.23,14.23,6.37,14.23,14.23"/><path class="cls-1" d="M672.11,111.4c-3.08-.5-6.06-.76-9-.95-2.96-.22-5.83-.28-8.72-.35-5.74-.06-11.34,.15-16.81,.57-10.94,.82-21.44,2.34-31.27,4.09-1.24,.21-2.46,.44-3.68,.68-1.2,.22-2.41,.41-3.58,.64l-3.55,.69c-1.16,.19-2.31,.43-3.44,.63-1.15,.22-2.29,.44-3.41,.68l-3.35,.61c-1.09,.21-2.2,.48-3.28,.65-1.09,.19-2.17,.37-3.24,.6-8.56,1.64-16.7,3.04-25.13,4.78-1.04,.26-2.13,.44-3.18,.66l-3.19,.71-1.59,.39-1.7,.37-3.36,.8c-4.47,1.11-8.92,2.25-13.34,3.46-8.86,2.39-17.66,5.02-26.5,7.44-8.82,2.46-17.71,4.61-26.65,6.39-8.94,1.77-17.93,2.83-26.92,3.72-2.25,.22-4.51,.43-6.76,.62-2.25,.21-4.51,.4-6.76,.54-4.52,.36-9.05,.64-13.6,.82-9.1,.41-18.28,.5-27.47-.14-9.21-.59-18.43-1.92-27.46-4.19-9.03-2.25-17.83-5.5-26.27-9.64-8.6-4.2-16.87-9.28-24.6-15.18,7.15,.54,12.44,.14,16.34-.77,.01,0,.03,0,.04-.01,4.18-.75,10.13-2.36,16.11-5.89,14.09-8.31,21.84-23.25,21.84-42.07v-26.09s-1.07-5.21-13.05-5.21-13.04,5.21-13.04,5.21v26.09c0,9.3-2.75,15.58-8.38,19.22-4.29,2.75-8.96,3.25-9.79,3.32l-.47-.06-1.05,.18c-.72,.08-6.89,.66-13.01-1.92-7.69-3.25-12.26-10.34-13.95-21.66v-25.16s-1.41-5.21-13.05-5.21c-10.41,0-13.04,5.21-13.04,5.21v2.59c-.06,.15-.08,.3-.11,.46-.37,2.56-.79,5.1-.95,7.7-.14,1.29-.17,2.6-.25,3.91,0,1.3-.08,2.61-.01,3.93,.14,5.25,.83,10.55,2.18,15.69,1.34,5.16,3.24,10.13,5.5,14.93,1.42,2.97,2.94,5.82,4.55,8.61,.98,1.71,2,3.41,3.06,5.12,10.95,17.75,25.16,33.83,41.79,47.48,8.33,6.82,17.21,13.08,26.49,18.91,9.26,5.83,19,11.17,29.07,15.91,2.52,1.2,5.07,2.32,7.63,3.44,2.59,1.07,5.17,2.16,7.77,3.15,2.61,1.02,5.24,1.96,7.88,2.9,2.65,.88,5.31,1.78,7.99,2.58,2.68,.83,5.38,1.55,8.08,2.28,2.71,.66,5.43,1.37,8.14,1.96,2.74,.59,5.46,1.12,8.21,1.65,2.74,.5,5.49,.91,8.24,1.33,11.01,1.52,22.07,2.36,33.1,2.92,11.05,.6,22.08,.75,33.08,.48,5.49-.14,10.98-.43,16.43-.89,5.46-.44,10.87-1.08,16.24-1.89,5.38-.83,10.7-1.84,15.95-3.07l3.94-.95,1.96-.5,2.03-.55c2.74-.8,5.42-1.59,8.14-2.52,10.84-3.64,21.67-8.72,31.59-14.77,2.49-1.49,4.93-3.07,7.27-4.69l3.51-2.46c1.16-.83,2.25-1.7,3.37-2.54,1.11-.87,2.23-1.71,3.32-2.6l3.17-2.67c1.06-.88,2.1-1.81,3.12-2.71,1.01-.91,2.02-1.82,3-2.76,7.95-7.45,15.03-15.46,21.72-24.14,3.33-4.33,6.55-8.86,9.65-13.63,1.53-2.43,3.07-4.84,4.55-7.38,1.47-2.54,2.92-5.14,4.24-7.98v-.03c.14-.26,.22-.54,.28-.82,.28-1.73-.9-3.36-2.63-3.64m-24.79,16.52c-7.41,4.08-14.84,8.12-22.31,12.06,.47,.08,.94,.19,1.41,.3,1.59,.42,3.11,1.02,4.51,1.83,2.81,1.6,5.07,3.88,7.01,6.32-2.23-2.17-4.73-4.11-7.53-5.25-2.79-1.17-5.81-1.48-8.78-1.19-.12,.01-.26,0-.39-.03-4.05,2.1-8.13,4.19-12.24,6.22-3.26,1.59-6.53,3.17-9.83,4.69,.68,.18,1.36,.37,1.99,.61,2.63,.93,5.03,2.28,7.18,3.9,2.16,1.63,4.08,3.51,5.69,5.6,1.65,2.07,3.03,4.31,4.23,6.62-1.49-2.14-3.12-4.16-4.96-5.96-1.83-1.81-3.87-3.36-6.05-4.62-2.18-1.24-4.51-2.17-6.9-2.7-2.39-.51-4.83-.61-7.13-.26h-.01c-.32,.04-.62,0-.9-.08-1.01,.44-2.01,.89-3.03,1.33-6.66,2.86-13.45,5.45-20.36,7.76-.3,.11-.62,.21-.94,.32,1.08,.44,2.16,.9,3.23,1.38,2.97,1.37,5.86,3,8.5,4.95,2.64,1.94,5.03,4.22,7.02,6.78,2.02,2.56,3.64,5.35,4.96,8.24-1.67-2.71-3.62-5.24-5.83-7.45-2.23-2.21-4.74-4.07-7.44-5.57-2.7-1.52-5.56-2.7-8.52-3.62-2.94-.94-5.99-1.65-9.14-2.46-.01,0-.03-.01-.04-.01-.75,.21-1.51,.43-2.27,.63-1.76,.5-3.53,.91-5.28,1.34l-5.28,1.3c-3.04,.73-6.11,1.44-9.18,2.11,1.08,.8,2.17,1.6,3.26,2.46,2.59,2.01,5.13,4.2,7.37,6.69,2.25,2.47,4.16,5.23,5.64,8.14,1.48,2.92,2.56,5.97,3.35,9.06-1.41-2.86-3.06-5.57-5.01-7.99-1.95-2.41-4.19-4.51-6.64-6.29-4.91-3.55-10.62-5.86-16.48-8.56h-.01c-.69-.32-1.22-.8-1.6-1.38-.65,.12-1.3,.26-1.94,.39-14.25,2.71-28.63,4.8-43.11,6.01-3.64,.25-7.24,.57-10.88,.7l-5.43,.26-5.45,.14c-7.27,.17-14.54,.08-21.8-.29-3.64-.22-7.26-.41-10.88-.77-3.64-.28-7.24-.75-10.85-1.16-7.2-.98-14.39-2.17-21.49-3.77-7.09-1.62-14.13-3.48-21.04-5.76-6.88-2.32-13.67-4.96-20.27-8-13.18-6.1-25.66-13.74-36.68-23.1,11.65,8.54,24.33,15.54,37.61,20.99,6.62,2.74,13.4,5.13,20.27,7.17,6.89,1.99,13.84,3.71,20.86,5.12l5.28,.98c1.77,.3,3.54,.55,5.31,.84l2.65,.4,2.67,.36c1.77,.22,3.54,.47,5.32,.66,3.57,.36,7.12,.77,10.7,1,3.57,.29,7.15,.43,10.73,.6,14.31,.57,28.67,.14,42.97-1.08,14.31-1.13,28.55-3.14,42.68-5.72,.94-.17,1.88-.35,2.82-.51,.03-.12,.06-.25,.11-.36,.11-.28,.28-.55,.44-.79,1.62-2.18,3.05-4.44,4.24-6.83,1.2-2.38,2.1-4.91,2.67-7.58,1.18-5.34,.93-11.11,.07-16.81,1.07,2.68,1.99,5.43,2.68,8.3s1.13,5.83,1.19,8.89c.06,3.04-.29,6.15-1.01,9.17-.33,1.42-.75,2.83-1.22,4.22,3.06-.62,6.1-1.27,9.12-1.95,4.22-.95,8.39-1.92,12.53-2.99,.01-.03,.03-.04,.04-.07,.06-.08,.12-.18,.19-.26,1.76-2.01,3.25-4.26,4.41-6.73,1.16-2.45,2.02-5.1,2.57-7.84,1.12-5.5,1.11-11.28,.54-17.01,1.34,5.59,2.18,11.39,1.81,17.31-.19,2.96-.69,5.93-1.6,8.83-.43,1.36-.95,2.7-1.56,4,.64-.18,1.27-.37,1.91-.57,6.84-2.07,13.6-4.51,20.3-7.12,1.01-.39,2.01-.8,3-1.2,.05-.12,.11-.25,.18-.37,.05-.08,.11-.17,.18-.23,1.34-1.6,2.4-3.57,3.21-5.66,.82-2.09,1.37-4.33,1.67-6.61,.59-4.55,.32-9.35-1.29-13.81,2.21,4.22,3.22,9.07,3.25,13.94,.01,2.45-.24,4.91-.79,7.34-.26,1.06-.58,2.13-.97,3.19,3.84-1.6,7.66-3.26,11.45-4.95,4.16-1.84,8.3-3.72,12.43-5.64,.07-.18,.18-.33,.33-.46,.03-.12,.07-.24,.12-.35,.03-.06,.07-.1,.1-.14,1.73-2.16,3.14-4.6,3.76-7.31,.65-2.71,.43-5.65-.53-8.39,1.31,2.57,1.99,5.57,1.69,8.57-.19,2.23-.88,4.38-1.85,6.4,7.74-3.61,15.47-7.3,23.23-10.9,.04-.01,.08,0,.08,.04,.03,.03,.01,.07-.01,.08"/></svg>